<svg width="130" height="47" viewBox="0 0 130 47" fill="none" xmlns="http://www.w3.org/2000/svg">
<path d="M11.5 22.5C11.5 25.2214 9.07941 27.5 6 27.5C2.92059 27.5 0.5 25.2214 0.5 22.5C0.5 19.7786 2.92059 17.5 6 17.5C9.07941 17.5 11.5 19.7786 11.5 22.5Z" fill="white" stroke="#0038FF"/>
<path d="M31.5 7.5C31.5 10.2214 29.0794 12.5 26 12.5C22.9206 12.5 20.5 10.2214 20.5 7.5C20.5 4.77864 22.9206 2.5 26 2.5C29.0794 2.5 31.5 4.77864 31.5 7.5Z" fill="white" stroke="#0038FF"/>
<path d="M50.5 22.5C50.5 25.2214 48.0794 27.5 45 27.5C41.9206 27.5 39.5 25.2214 39.5 22.5C39.5 19.7786 41.9206 17.5 45 17.5C48.0794 17.5 50.5 19.7786 50.5 22.5Z" fill="white" stroke="#0038FF"/>
<path d="M31.5 36.5C31.5 39.2214 29.0794 41.5 26 41.5C22.9206 41.5 20.5 39.2214 20.5 36.5C20.5 33.7786 22.9206 31.5 26 31.5C29.0794 31.5 31.5 33.7786 31.5 36.5Z" fill="white" stroke="#0038FF"/>
<line x1="9.71327" y1="18.5904" x2="21.1825" y2="10.5619" stroke="#0029FF"/>
<line x1="11" y1="22.5" x2="39" y2="22.5" stroke="#0029FF"/>
<line x1="26.5" y1="32" x2="26.5" y2="12" stroke="#0029FF"/>
<line x1="20.6887" y1="34.3913" x2="9.73339" y2="25.6745" stroke="#0029FF"/>
<line x1="29.7133" y1="33.6189" x2="41.1825" y2="25.5904" stroke="#0029FF"/>
<line x1="41.6437" y1="18.1084" x2="30.6887" y2="9.39123" stroke="#0029FF"/>
<path d="M64.168 19.17C63.3973 19.17 62.723 19.0283 62.145 18.745C61.5783 18.4503 61.1363 18.031 60.819 17.487C60.513 16.9317 60.36 16.2857 60.36 15.549V10.041C60.36 9.293 60.513 8.647 60.819 8.103C61.1363 7.559 61.5783 7.14533 62.145 6.862C62.723 6.56733 63.3973 6.42 64.168 6.42C64.9387 6.42 65.6073 6.56733 66.174 6.862C66.7407 7.15667 67.177 7.576 67.483 8.12C67.8003 8.65267 67.959 9.293 67.959 10.041H66.123C66.123 9.395 65.953 8.902 65.613 8.562C65.273 8.222 64.7913 8.052 64.168 8.052C63.5447 8.052 63.0573 8.222 62.706 8.562C62.366 8.902 62.196 9.38933 62.196 10.024V15.549C62.196 16.1837 62.366 16.6767 62.706 17.028C63.0573 17.3793 63.5447 17.555 64.168 17.555C64.7913 17.555 65.273 17.3793 65.613 17.028C65.953 16.6767 66.123 16.1837 66.123 15.549V14.155H63.811V12.54H67.959V15.549C67.959 16.2857 67.8003 16.926 67.483 17.47C67.177 18.014 66.7407 18.4333 66.174 18.728C65.6073 19.0227 64.9387 19.17 64.168 19.17ZM70.9274 19V9.65H72.6954V11.435H73.1374L72.5764 12.54C72.5764 11.5313 72.7974 10.772 73.2394 10.262C73.6814 9.74067 74.3387 9.48 75.2114 9.48C76.2087 9.48 76.9964 9.79167 77.5744 10.415C78.1637 11.027 78.4584 11.8713 78.4584 12.948V13.577H76.5714V13.101C76.5714 12.4323 76.4014 11.9223 76.0614 11.571C75.7327 11.2083 75.268 11.027 74.6674 11.027C74.0667 11.027 73.5964 11.2083 73.2564 11.571C72.9277 11.9337 72.7634 12.4437 72.7634 13.101V19H70.9274ZM83.5517 19.17C82.5771 19.17 81.8064 18.9207 81.2397 18.422C80.6844 17.912 80.4067 17.2207 80.4067 16.348C80.4067 15.464 80.7014 14.7727 81.2907 14.274C81.8914 13.764 82.7131 13.509 83.7557 13.509H86.3567V12.642C86.3567 12.132 86.1981 11.7353 85.8807 11.452C85.5634 11.1687 85.1157 11.027 84.5377 11.027C84.0277 11.027 83.6027 11.1403 83.2627 11.367C82.9227 11.5823 82.7244 11.8713 82.6677 12.234H80.8657C80.9677 11.3953 81.3531 10.7267 82.0217 10.228C82.7017 9.72933 83.5574 9.48 84.5887 9.48C85.6994 9.48 86.5777 9.76333 87.2237 10.33C87.8697 10.8853 88.1927 11.6447 88.1927 12.608V19H86.4077V17.283H86.1017L86.4077 16.943C86.4077 17.623 86.1471 18.167 85.6257 18.575C85.1044 18.9717 84.4131 19.17 83.5517 19.17ZM84.0957 17.759C84.7531 17.759 85.2914 17.5947 85.7107 17.266C86.1414 16.926 86.3567 16.4953 86.3567 15.974V14.75H83.7897C83.3137 14.75 82.9341 14.8803 82.6507 15.141C82.3787 15.4017 82.2427 15.7587 82.2427 16.212C82.2427 16.688 82.4071 17.0677 82.7357 17.351C83.0644 17.623 83.5177 17.759 84.0957 17.759ZM91.0081 22.06V9.65H92.8271V11.435H93.2181L92.8271 11.86C92.8271 11.1233 93.0537 10.5453 93.5071 10.126C93.9717 9.69533 94.5894 9.48 95.3601 9.48C96.3007 9.48 97.0487 9.79733 97.6041 10.432C98.1707 11.0553 98.4541 11.911 98.4541 12.999V15.634C98.4541 16.3593 98.3237 16.9883 98.0631 17.521C97.8137 18.0423 97.4567 18.4503 96.9921 18.745C96.5387 19.0283 95.9947 19.17 95.3601 19.17C94.6007 19.17 93.9887 18.9603 93.5241 18.541C93.0594 18.1103 92.8271 17.5267 92.8271 16.79L93.2181 17.215H92.7931L92.8441 19.391V22.06H91.0081ZM94.7311 17.572C95.3317 17.572 95.7964 17.402 96.1251 17.062C96.4651 16.7107 96.6351 16.2063 96.6351 15.549V13.101C96.6351 12.4437 96.4651 11.945 96.1251 11.605C95.7964 11.2537 95.3317 11.078 94.7311 11.078C94.1531 11.078 93.6941 11.2593 93.3541 11.622C93.0141 11.9733 92.8441 12.4663 92.8441 13.101V15.549C92.8441 16.1837 93.0141 16.6823 93.3541 17.045C93.6941 17.3963 94.1531 17.572 94.7311 17.572ZM101.201 19V6.59H103.037V9.65L103.02 11.435H103.462L103.02 11.86C103.02 11.112 103.241 10.5283 103.683 10.109C104.125 9.68967 104.737 9.48 105.519 9.48C106.449 9.48 107.191 9.78033 107.746 10.381C108.302 10.9703 108.579 11.7693 108.579 12.778V19H106.743V12.982C106.743 12.37 106.579 11.894 106.25 11.554C105.922 11.214 105.474 11.044 104.907 11.044C104.329 11.044 103.87 11.2253 103.53 11.588C103.202 11.9393 103.037 12.4437 103.037 13.101V19H101.201ZM60.7 41L59.357 28.59H61.006L61.839 37.498C61.8617 37.7247 61.8787 37.974 61.89 38.246C61.9127 38.518 61.9297 38.7843 61.941 39.045C61.9637 39.3057 61.975 39.5323 61.975 39.725C61.9977 39.5323 62.0203 39.3057 62.043 39.045C62.0657 38.7843 62.0883 38.518 62.111 38.246C62.145 37.974 62.179 37.7247 62.213 37.498L63.284 28.59H64.984L65.987 37.498C66.0097 37.7247 66.0323 37.974 66.055 38.246C66.089 38.518 66.123 38.7843 66.157 39.045C66.191 39.3057 66.2137 39.5323 66.225 39.725C66.2363 39.5323 66.2477 39.3057 66.259 39.045C66.2817 38.7843 66.3043 38.518 66.327 38.246C66.3497 37.974 66.3723 37.7247 66.395 37.498L67.245 28.59H68.843L67.449 41H65.324L64.321 31.973C64.2983 31.735 64.2757 31.4857 64.253 31.225C64.2303 30.953 64.2077 30.6923 64.185 30.443C64.1623 30.1823 64.1397 29.967 64.117 29.797C64.1057 29.967 64.0887 30.1823 64.066 30.443C64.0433 30.6923 64.0207 30.953 63.998 31.225C63.9753 31.4857 63.947 31.735 63.913 31.973L62.842 41H60.7ZM74.2934 41.153C73.5227 41.153 72.854 41.0057 72.2874 40.711C71.7207 40.4163 71.2844 39.997 70.9784 39.453C70.6724 38.909 70.5194 38.2687 70.5194 37.532V35.118C70.5194 34.37 70.6724 33.7297 70.9784 33.197C71.2844 32.653 71.7207 32.2337 72.2874 31.939C72.854 31.6443 73.5227 31.497 74.2934 31.497C75.064 31.497 75.7327 31.6443 76.2994 31.939C76.866 32.2337 77.3024 32.653 77.6084 33.197C77.9144 33.7297 78.0674 34.37 78.0674 35.118V37.532C78.0674 38.2687 77.9144 38.909 77.6084 39.453C77.3024 39.997 76.866 40.4163 76.2994 40.711C75.7327 41.0057 75.064 41.153 74.2934 41.153ZM74.2934 39.538C74.9167 39.538 75.3984 39.368 75.7384 39.028C76.0784 38.6767 76.2484 38.178 76.2484 37.532V35.118C76.2484 34.4607 76.0784 33.962 75.7384 33.622C75.3984 33.282 74.9167 33.112 74.2934 33.112C73.6814 33.112 73.1997 33.282 72.8484 33.622C72.5084 33.962 72.3384 34.4607 72.3384 35.118V37.532C72.3384 38.178 72.5084 38.6767 72.8484 39.028C73.1997 39.368 73.6814 39.538 74.2934 39.538ZM81.1207 41V31.65H82.8887V33.435H83.3307L82.7697 34.54C82.7697 33.5313 82.9907 32.772 83.4327 32.262C83.8747 31.7407 84.5321 31.48 85.4047 31.48C86.4021 31.48 87.1897 31.7917 87.7677 32.415C88.3571 33.027 88.6517 33.8713 88.6517 34.948V35.577H86.7647V35.101C86.7647 34.4323 86.5947 33.9223 86.2547 33.571C85.9261 33.2083 85.4614 33.027 84.8607 33.027C84.2601 33.027 83.7897 33.2083 83.4497 33.571C83.1211 33.9337 82.9567 34.4437 82.9567 35.101V41H81.1207ZM96.0231 41C95.4451 41 94.9407 40.8867 94.5101 40.66C94.0794 40.422 93.7394 40.0877 93.4901 39.657C93.2521 39.2263 93.1331 38.7277 93.1331 38.161V30.256H90.0731V28.59H94.9691V38.161C94.9691 38.5237 95.0711 38.8127 95.2751 39.028C95.4791 39.232 95.7567 39.334 96.1081 39.334H98.9981V41H96.0231ZM104.21 41.17C103.27 41.17 102.516 40.8527 101.949 40.218C101.383 39.5833 101.099 38.7277 101.099 37.651V35.016C101.099 33.928 101.383 33.0667 101.949 32.432C102.516 31.7973 103.27 31.48 104.21 31.48C104.981 31.48 105.593 31.6953 106.046 32.126C106.5 32.5453 106.726 33.1233 106.726 33.86L106.335 33.435H106.76L106.709 31.259V28.59H108.545V41H106.726V39.215H106.335L106.726 38.79C106.726 39.5267 106.5 40.1103 106.046 40.541C105.593 40.9603 104.981 41.17 104.21 41.17ZM104.839 39.572C105.417 39.572 105.871 39.3963 106.199 39.045C106.539 38.6823 106.709 38.1837 106.709 37.549V35.101C106.709 34.4663 106.539 33.9733 106.199 33.622C105.871 33.2593 105.417 33.078 104.839 33.078C104.239 33.078 103.768 33.2537 103.428 33.605C103.088 33.945 102.918 34.4437 102.918 35.101V37.549C102.918 38.2063 103.088 38.7107 103.428 39.062C103.768 39.402 104.239 39.572 104.839 39.572Z" fill="black"/>
</svg>
